<svg width="177" height="61" viewBox="0 0 177 61" fill="none" xmlns="http://www.w3.org/2000/svg">
<path d="M1.98153 49V22.8182H8.30966V43.8608H19.2017V49H1.98153ZM30.5638 49.3707C28.5013 49.3707 26.7286 48.9489 25.2456 48.1051C23.7712 47.2528 22.6334 46.0682 21.8323 44.5511C21.0397 43.0256 20.6434 41.2571 20.6434 39.2457C20.6434 37.2259 21.0397 35.4574 21.8323 33.9403C22.6334 32.4148 23.7712 31.2301 25.2456 30.3864C26.7286 29.5341 28.5013 29.108 30.5638 29.108C32.6263 29.108 34.3948 29.5341 35.8692 30.3864C37.3522 31.2301 38.49 32.4148 39.2826 33.9403C40.0837 35.4574 40.4843 37.2259 40.4843 39.2457C40.4843 41.2571 40.0837 43.0256 39.2826 44.5511C38.49 46.0682 37.3522 47.2528 35.8692 48.1051C34.3948 48.9489 32.6263 49.3707 30.5638 49.3707ZM30.6022 44.6534C31.3522 44.6534 31.9871 44.4233 32.507 43.9631C33.0269 43.5028 33.4232 42.8636 33.6959 42.0455C33.9772 41.2273 34.1178 40.2812 34.1178 39.2074C34.1178 38.1165 33.9772 37.1619 33.6959 36.3438C33.4232 35.5256 33.0269 34.8864 32.507 34.4261C31.9871 33.9659 31.3522 33.7358 30.6022 33.7358C29.8266 33.7358 29.1704 33.9659 28.6334 34.4261C28.105 34.8864 27.7002 35.5256 27.4189 36.3438C27.1462 37.1619 27.0098 38.1165 27.0098 39.2074C27.0098 40.2812 27.1462 41.2273 27.4189 42.0455C27.7002 42.8636 28.105 43.5028 28.6334 43.9631C29.1704 44.4233 29.8266 44.6534 30.6022 44.6534ZM51.7729 49.3707C49.7019 49.3707 47.9249 48.9446 46.4419 48.0923C44.9675 47.2401 43.834 46.0554 43.0413 44.5384C42.2487 43.0128 41.8524 41.2486 41.8524 39.2457C41.8524 37.2344 42.2487 35.4702 43.0413 33.9531C43.8425 32.4276 44.9803 31.2386 46.4547 30.3864C47.9377 29.5341 49.7061 29.108 51.7601 29.108C53.5754 29.108 55.1564 29.4361 56.503 30.0923C57.8581 30.7486 58.9149 31.6776 59.6735 32.8793C60.4405 34.0724 60.8453 35.4744 60.8879 37.0852H55.0456C54.9263 36.0795 54.5854 35.2912 54.0229 34.7202C53.4689 34.1491 52.7445 33.8636 51.8496 33.8636C51.1252 33.8636 50.4902 34.0682 49.9448 34.4773C49.3993 34.8778 48.9732 35.4744 48.6663 36.267C48.3681 37.0511 48.2189 38.0227 48.2189 39.1818C48.2189 40.3409 48.3681 41.321 48.6663 42.1222C48.9732 42.9148 49.3993 43.5156 49.9448 43.9247C50.4902 44.3253 51.1252 44.5256 51.8496 44.5256C52.4291 44.5256 52.9405 44.402 53.3837 44.1548C53.8354 43.9077 54.2061 43.5455 54.4959 43.0682C54.7857 42.5824 54.9689 41.9943 55.0456 41.304H60.8879C60.8283 42.9233 60.4235 44.3381 59.6735 45.5483C58.932 46.7585 57.8879 47.7003 56.5414 48.3736C55.2033 49.0384 53.6138 49.3707 51.7729 49.3707ZM68.5427 49.3324C67.2898 49.3324 66.1776 49.1236 65.206 48.706C64.243 48.2798 63.4802 47.6406 62.9177 46.7884C62.3637 45.9276 62.0867 44.8494 62.0867 43.554C62.0867 42.4631 62.2785 41.5426 62.662 40.7926C63.0455 40.0426 63.5739 39.4332 64.2472 38.9645C64.9205 38.4957 65.6961 38.142 66.5739 37.9034C67.4518 37.6562 68.3893 37.4901 69.3864 37.4048C70.5029 37.3026 71.402 37.196 72.0839 37.0852C72.7657 36.9659 73.26 36.7997 73.5668 36.5866C73.8822 36.3651 74.0398 36.054 74.0398 35.6534V35.5895C74.0398 34.9332 73.814 34.4261 73.3623 34.0682C72.9106 33.7102 72.3012 33.5312 71.5341 33.5312C70.7074 33.5312 70.0427 33.7102 69.5398 34.0682C69.037 34.4261 68.7174 34.9205 68.581 35.5511L62.8154 35.3466C62.9859 34.1534 63.4248 33.0881 64.1322 32.1506C64.8481 31.2045 65.8282 30.4631 67.0725 29.9261C68.3253 29.3807 69.8296 29.108 71.5853 29.108C72.8381 29.108 73.993 29.2571 75.0498 29.5554C76.1066 29.8452 77.027 30.2713 77.8111 30.8338C78.5952 31.3878 79.2003 32.0696 79.6265 32.8793C80.0611 33.6889 80.2785 34.6136 80.2785 35.6534V49H74.3978V46.2642H74.2444C73.8949 46.929 73.4475 47.4915 72.902 47.9517C72.3651 48.4119 71.7302 48.7571 70.9972 48.9872C70.2728 49.2173 69.4546 49.3324 68.5427 49.3324ZM70.4731 45.2415C71.1464 45.2415 71.7515 45.1051 72.2884 44.8324C72.8339 44.5597 73.2685 44.1847 73.5924 43.7074C73.9162 43.2216 74.0782 42.6591 74.0782 42.0199V40.1534C73.8992 40.2472 73.6819 40.3324 73.4262 40.4091C73.179 40.4858 72.9063 40.5582 72.608 40.6264C72.3097 40.6946 72.0029 40.7543 71.6876 40.8054C71.3722 40.8565 71.0697 40.9034 70.7799 40.946C70.1918 41.0398 69.689 41.1847 69.2714 41.3807C68.8623 41.5767 68.5469 41.8324 68.3253 42.1477C68.1123 42.4545 68.0057 42.821 68.0057 43.2472C68.0057 43.8949 68.2359 44.3892 68.6961 44.7301C69.1648 45.071 69.7572 45.2415 70.4731 45.2415Z" fill="white"/>
<path d="M102.278 0.385774C103.002 0.968142 103.402 1.72387 103.802 2.54263C103.857 2.6539 103.913 2.76517 103.97 2.87981C104.146 3.23504 104.321 3.591 104.496 3.94699C104.611 4.17705 104.725 4.40707 104.839 4.63704C105.507 5.98187 106.159 7.33399 106.804 8.68936C107.478 10.1018 108.169 11.5062 108.86 12.9105C109.246 13.6962 109.632 14.4822 110.018 15.2682C110.094 15.4228 110.17 15.5774 110.248 15.7367C110.858 16.9793 111.464 18.2236 112.068 19.4692C112.921 21.2303 113.779 22.9892 114.639 24.7473C114.765 25.004 114.89 25.2607 115.016 25.5175C115.268 26.0318 115.519 26.5461 115.771 27.0604C115.833 27.1878 115.895 27.3152 115.959 27.4465C116.086 27.705 116.212 27.9634 116.339 28.2219C116.709 28.9795 117.08 29.7372 117.45 30.495C117.564 30.7283 117.678 30.9617 117.792 31.195C120.18 36.075 120.18 36.075 119.838 37.3274C119.538 38.0853 119.149 38.6168 118.442 39.03C117.344 39.3865 116.187 39.5624 115.051 39.7553C114.882 39.7845 114.713 39.8137 114.538 39.8438C114.08 39.923 113.621 40.0014 113.162 40.0795C112.875 40.1285 112.587 40.1777 112.299 40.2268C111.294 40.3988 110.288 40.5701 109.282 40.7407C108.348 40.8992 107.415 41.0594 106.481 41.2205C105.676 41.3594 104.871 41.4968 104.065 41.6333C103.585 41.7146 103.106 41.7964 102.627 41.8796C102.093 41.9723 101.558 42.0622 101.023 42.1519C100.867 42.1795 100.71 42.2071 100.549 42.2355C99.2475 42.4496 97.9778 42.5276 96.8575 41.7281C96.2267 41.1233 95.8378 40.4428 95.4843 39.6524C95.4344 39.5442 95.3845 39.436 95.3332 39.3245C95.1709 38.9713 95.0108 38.6171 94.8509 38.2628C94.7372 38.0141 94.6234 37.7655 94.5095 37.5169C93.6942 35.733 92.8979 33.9407 92.1062 32.1462C91.4874 30.7455 90.8446 29.3574 90.1895 27.9732C89.5126 26.5418 88.8627 25.0999 88.2238 23.6512C87.5418 22.1051 86.8458 20.5673 86.1244 19.0392C85.4447 17.5994 84.7747 16.1558 84.1177 14.7055C84.0766 14.6148 84.0355 14.5241 83.9932 14.4307C83.8258 14.0611 83.6584 13.6916 83.4911 13.322C82.9749 12.1826 82.4544 11.0453 81.934 9.90799C81.8436 9.7105 81.7532 9.51301 81.6629 9.31552C81.6199 9.22158 81.5769 9.12764 81.5326 9.03086C81.4493 8.84868 81.366 8.66645 81.2829 8.48418C81.1013 8.086 80.9184 7.6887 80.7321 7.29267C80.6714 7.16277 80.6106 7.03287 80.548 6.89903C80.496 6.78915 80.4439 6.67927 80.3903 6.56606C80.0932 5.81642 80.0545 5.1545 80.2814 4.38542C80.5876 3.86493 80.8775 3.40047 81.4699 3.1867C81.7915 3.11365 82.112 3.0589 82.438 3.00912C82.5616 2.98794 82.6853 2.96676 82.8127 2.94494C83.0815 2.89907 83.3504 2.85432 83.6196 2.81059C84.045 2.74077 84.4695 2.66659 84.894 2.59096C85.8335 2.42369 86.7738 2.26071 87.7142 2.0984C87.8837 2.06913 88.0532 2.03986 88.2279 2.0097C88.94 1.8868 89.6522 1.76401 90.3644 1.64163C91.3734 1.46825 92.3822 1.29394 93.3909 1.11839C94.1943 0.978644 94.998 0.840386 95.8018 0.702636C96.1405 0.644361 96.4792 0.585631 96.8178 0.526422C97.2909 0.443793 97.7642 0.362881 98.2377 0.282357C98.375 0.257976 98.5123 0.233595 98.6538 0.208475C99.8648 0.00572331 101.153 -0.203477 102.278 0.385774Z" fill="white"/>
<path d="M86.8747 38.6253C86.9483 38.6751 87.0219 38.7249 87.0977 38.7763C87.6253 39.1309 88.1533 39.4744 88.7029 39.794C90.2085 40.7271 90.2085 40.7271 90.5036 41.5107C90.6723 42.3801 90.6131 43.2524 90.5593 44.131C90.5449 44.5219 90.5338 44.9126 90.5253 45.3037C90.519 45.5451 90.5089 45.7865 90.4942 46.0276C90.4609 46.8025 90.5552 47.4509 91.0567 48.0685C91.6385 48.5288 92.1126 48.6981 92.8411 48.8116C92.9821 48.8344 92.9821 48.8344 93.1259 48.8577C93.3285 48.8902 93.5312 48.9218 93.734 48.9526C94.0553 49.0014 94.3761 49.0526 94.6969 49.1044C95.3774 49.2138 96.0584 49.32 96.7395 49.426C97.5299 49.5494 98.3201 49.6742 99.11 49.8013C99.4258 49.8516 99.7418 49.8999 100.058 49.9481C100.252 49.979 100.445 50.0099 100.639 50.041C100.808 50.0672 100.977 50.0934 101.151 50.1204C101.577 50.2264 101.805 50.3296 102.119 50.6316C102.212 50.9967 102.184 51.3411 102.119 51.7109C101.911 52.0042 101.763 52.0911 101.444 52.2505C101.214 52.2654 100.983 52.272 100.752 52.2744C100.607 52.2761 100.463 52.2778 100.314 52.2796C100.156 52.2806 99.9994 52.2816 99.8375 52.2826C99.6761 52.2837 99.5146 52.2848 99.3483 52.2859C99.0057 52.2878 98.6631 52.2892 98.3205 52.2903C97.7988 52.2926 97.2772 52.2985 96.7556 52.3045C96.4226 52.3059 96.0897 52.307 95.7567 52.3079C95.6015 52.3103 95.4463 52.3126 95.2865 52.3151C94.0895 52.3119 93.173 52.0458 92.2203 51.3062C92.1357 51.2422 92.0512 51.1782 91.9642 51.1122C91.7116 50.8837 91.5219 50.64 91.3265 50.3618C91.7874 52.3345 93.0732 53.3557 94.629 54.5465C95.2748 55.0541 95.897 55.5904 96.5207 56.1248C96.7001 56.2783 96.8802 56.4311 97.0604 56.5837C97.1548 56.6646 97.2493 56.7454 97.3465 56.8287C97.4262 56.8967 97.5058 56.9647 97.5879 57.0348C97.9304 57.3663 98.1774 57.6223 98.265 58.1008C98.2662 58.8696 98.2035 59.3437 97.6669 59.9399C97.2793 60.1764 96.981 60.2495 96.5287 60.2519C96.4287 60.2541 96.3287 60.2564 96.2257 60.2587C95.4673 60.1398 94.9202 59.5526 94.3618 59.063C94.1934 58.917 94.025 58.7711 93.8565 58.6251C93.7718 58.5516 93.6871 58.4781 93.5999 58.4023C93.224 58.0772 92.8446 57.7563 92.4648 57.4358C92.3199 57.3134 92.1749 57.1909 92.03 57.0685C91.9585 57.0081 91.887 56.9478 91.8134 56.8856C91.5217 56.6392 91.2302 56.3926 90.9388 56.1459C90.7931 56.0226 90.6473 55.8994 90.5014 55.7763C90.1276 55.4606 89.7553 55.1435 89.3852 54.8236C87.8144 53.4701 86.6089 52.5064 84.4465 52.6552C83.8589 52.7553 83.2816 52.8879 82.7028 53.0299C82.4194 53.0995 82.1355 53.1669 81.8514 53.2339C81.2489 53.3764 80.6471 53.5216 80.0453 53.667C79.3461 53.8356 78.6466 54.003 77.9466 54.1684C77.6688 54.2345 77.3916 54.3023 77.1143 54.3702C76.2109 54.5846 75.3931 54.7555 74.4637 54.6787C74.0913 54.3853 74.068 54.2004 74 53.7344C74.075 53.2201 74.2 53.1176 74.5986 52.7901C74.9371 52.6331 75.2633 52.4977 75.6125 52.3706C75.714 52.3323 75.8154 52.294 75.92 52.2545C76.1398 52.1716 76.3599 52.0894 76.5801 52.0077C77.1718 51.7882 77.7616 51.5637 78.3517 51.3399C78.4743 51.2935 78.597 51.2471 78.7234 51.1994C79.9834 50.7222 81.2365 50.2284 82.4876 49.7286C82.7246 49.634 82.9616 49.5397 83.1988 49.4457C83.531 49.3139 83.8628 49.1814 84.1946 49.0487C84.2925 49.01 84.3903 48.9712 84.4912 48.9314C85.0013 48.7259 85.4613 48.4884 85.9304 48.2034C86.0195 48.2034 86.1085 48.2034 86.2002 48.2034C86.7014 47.0221 86.7839 46.03 86.7957 44.7513C86.7983 44.5759 86.8009 44.4006 86.8036 44.22C86.8105 43.7567 86.8159 43.2934 86.8209 42.8301C86.8263 42.3562 86.8332 41.8824 86.84 41.4085C86.853 40.4808 86.8644 39.5531 86.8747 38.6253Z" fill="white"/>
<path d="M78.3759 4.36012C78.368 4.46637 78.3602 4.57263 78.3522 4.6821C78.3461 4.82904 78.34 4.97598 78.3337 5.12738C78.3259 5.2698 78.3181 5.41222 78.31 5.55896C78.3996 7.09887 79.4349 8.73184 80.0809 10.1089C80.3687 10.7225 80.6545 11.3371 80.9406 11.9515C80.9981 12.0749 81.0556 12.1983 81.1149 12.3254C81.6335 13.439 82.1438 14.5561 82.6506 15.6751C82.7323 15.8554 82.8141 16.0358 82.8958 16.2161C83.1412 16.7574 83.1412 16.7574 83.2635 17.0273C83.7452 18.0898 84.2308 19.1504 84.7163 20.2112C85.4574 21.8308 86.1959 23.4515 86.9324 25.0733C87.5854 26.5114 88.2411 27.9483 88.8983 29.3845C89.5974 30.9125 90.2945 32.4413 90.9892 33.9712C91.6729 35.4764 92.3578 36.981 93.0447 38.4847C93.1407 38.6948 93.2366 38.9049 93.3325 39.115C93.4656 39.4066 93.5988 39.6981 93.7321 39.9896C93.7715 40.076 93.8109 40.1623 93.8515 40.2513C94.0022 40.5807 94.1519 40.9053 94.3295 41.2212C94.4293 41.4583 94.4293 41.4583 94.2944 41.863C93.0981 40.9696 91.9062 40.0708 90.7194 39.1649C89.8901 38.5319 89.0593 37.901 88.2237 37.2763C87.9627 37.0807 87.7017 36.8849 87.4407 36.6891C87.2246 36.5269 87.0083 36.365 86.7919 36.2031C86.4114 35.918 86.0317 35.6318 85.6522 35.3455C85.5333 35.2567 85.4145 35.168 85.292 35.0765C83.5767 33.7786 82.7568 32.5961 82.3074 30.4688C82.2741 30.3182 82.2409 30.1676 82.2066 30.0125C82.0967 29.5113 81.9898 29.0096 81.8833 28.5077C81.8455 28.3309 81.8076 28.1541 81.7697 27.9773C81.4973 26.7059 81.2309 25.4333 80.9657 24.1604C80.8518 23.6139 80.7374 23.0676 80.6231 22.5212C80.4077 21.4913 80.1926 20.4614 79.9777 19.4314C79.6619 17.9178 79.3455 16.4042 79.0291 14.8907C79.0058 14.7792 78.9825 14.6676 78.9585 14.5526C78.9119 14.3301 78.8654 14.1076 78.8189 13.8851C78.6837 13.2383 78.5486 12.5915 78.4137 11.9447C78.3298 11.543 78.2459 11.1413 78.162 10.7396C78.1234 10.5546 78.0848 10.3695 78.0462 10.1845C77.8023 9.01384 77.8023 9.01384 77.5445 7.84621C77.3224 6.82718 77.1946 5.70733 77.7519 4.78169C78.0536 4.36012 78.0536 4.36012 78.3759 4.36012Z" fill="white"/>
<mask id="path-5-outside-1_7_25" maskUnits="userSpaceOnUse" x="103" y="19" width="74" height="32" fill="black">
<rect fill="white" x="103" y="19" width="74" height="32"/>
<path d="M105.982 49V22.8182H112.31V43.8608H123.202V49H105.982ZM124.318 49V29.3636H130.569V49H124.318ZM127.45 27.0753C126.572 27.0753 125.818 26.7855 125.187 26.206C124.556 25.6179 124.241 24.9105 124.241 24.0838C124.241 23.2656 124.556 22.5668 125.187 21.9872C125.818 21.3991 126.572 21.1051 127.45 21.1051C128.336 21.1051 129.09 21.3991 129.713 21.9872C130.343 22.5668 130.659 23.2656 130.659 24.0838C130.659 24.9105 130.343 25.6179 129.713 26.206C129.09 26.7855 128.336 27.0753 127.45 27.0753ZM138.64 37.8011V49H132.388V29.3636H138.333V32.9688H138.55C138.985 31.767 139.726 30.8253 140.774 30.1435C141.823 29.4531 143.071 29.108 144.52 29.108C145.901 29.108 147.098 29.419 148.113 30.0412C149.135 30.6548 149.928 31.5156 150.49 32.6236C151.061 33.723 151.343 35.0099 151.334 36.4844V49H145.083V37.7116C145.091 36.6207 144.814 35.7685 144.252 35.1548C143.698 34.5412 142.926 34.2344 141.938 34.2344C141.282 34.2344 140.702 34.3793 140.199 34.669C139.705 34.9503 139.321 35.3551 139.049 35.8835C138.784 36.4119 138.648 37.0511 138.64 37.8011ZM158.682 43.848L158.708 36.3949H159.577L165.1 29.3636H172.182L163.975 39.4375H162.326L158.682 43.848ZM153.045 49V22.8182H159.296V49H153.045ZM165.241 49L160.101 40.8438L164.218 36.4077L172.464 49H165.241Z"/>
</mask>
<path d="M105.982 49V22.8182H112.31V43.8608H123.202V49H105.982ZM124.318 49V29.3636H130.569V49H124.318ZM127.45 27.0753C126.572 27.0753 125.818 26.7855 125.187 26.206C124.556 25.6179 124.241 24.9105 124.241 24.0838C124.241 23.2656 124.556 22.5668 125.187 21.9872C125.818 21.3991 126.572 21.1051 127.45 21.1051C128.336 21.1051 129.09 21.3991 129.713 21.9872C130.343 22.5668 130.659 23.2656 130.659 24.0838C130.659 24.9105 130.343 25.6179 129.713 26.206C129.09 26.7855 128.336 27.0753 127.45 27.0753ZM138.64 37.8011V49H132.388V29.3636H138.333V32.9688H138.55C138.985 31.767 139.726 30.8253 140.774 30.1435C141.823 29.4531 143.071 29.108 144.52 29.108C145.901 29.108 147.098 29.419 148.113 30.0412C149.135 30.6548 149.928 31.5156 150.49 32.6236C151.061 33.723 151.343 35.0099 151.334 36.4844V49H145.083V37.7116C145.091 36.6207 144.814 35.7685 144.252 35.1548C143.698 34.5412 142.926 34.2344 141.938 34.2344C141.282 34.2344 140.702 34.3793 140.199 34.669C139.705 34.9503 139.321 35.3551 139.049 35.8835C138.784 36.4119 138.648 37.0511 138.64 37.8011ZM158.682 43.848L158.708 36.3949H159.577L165.1 29.3636H172.182L163.975 39.4375H162.326L158.682 43.848ZM153.045 49V22.8182H159.296V49H153.045ZM165.241 49L160.101 40.8438L164.218 36.4077L172.464 49H165.241Z" fill="#22C55E"/>
<path d="M105.982 49H103.982V51H105.982V49ZM105.982 22.8182V20.8182H103.982V22.8182H105.982ZM112.31 22.8182H114.31V20.8182H112.31V22.8182ZM112.31 43.8608H110.31V45.8608H112.31V43.8608ZM123.202 43.8608H125.202V41.8608H123.202V43.8608ZM123.202 49V51H125.202V49H123.202ZM105.982 49H107.982V22.8182H105.982H103.982V49H105.982ZM105.982 22.8182V24.8182H112.31V22.8182V20.8182H105.982V22.8182ZM112.31 22.8182H110.31V43.8608H112.31H114.31V22.8182H112.31ZM112.31 43.8608V45.8608H123.202V43.8608V41.8608H112.31V43.8608ZM123.202 43.8608H121.202V49H123.202H125.202V43.8608H123.202ZM123.202 49V47H105.982V49V51H123.202V49ZM124.318 49H122.318V51H124.318V49ZM124.318 29.3636V27.3636H122.318V29.3636H124.318ZM130.569 29.3636H132.569V27.3636H130.569V29.3636ZM130.569 49V51H132.569V49H130.569ZM125.187 26.206L123.823 27.6687L123.828 27.6737L123.834 27.6786L125.187 26.206ZM125.187 21.9872L126.54 23.4599L126.546 23.4549L126.551 23.45L125.187 21.9872ZM129.713 21.9872L128.339 23.4407L128.349 23.4504L128.359 23.4599L129.713 21.9872ZM129.713 26.206L131.076 27.6694L131.076 27.6687L129.713 26.206ZM124.318 49H126.318V29.3636H124.318H122.318V49H124.318ZM124.318 29.3636V31.3636H130.569V29.3636V27.3636H124.318V29.3636ZM130.569 29.3636H128.569V49H130.569H132.569V29.3636H130.569ZM130.569 49V47H124.318V49V51H130.569V49ZM127.45 27.0753V25.0753C127.059 25.0753 126.792 24.9645 126.54 24.7333L125.187 26.206L123.834 27.6786C124.843 28.6065 126.084 29.0753 127.45 29.0753V27.0753ZM125.187 26.206L126.551 24.7432C126.306 24.515 126.241 24.3294 126.241 24.0838H124.241H122.241C122.241 25.4916 122.806 26.7207 123.823 27.6687L125.187 26.206ZM124.241 24.0838H126.241C126.241 23.8543 126.3 23.6807 126.54 23.4599L125.187 21.9872L123.834 20.5146C122.813 21.4528 122.241 22.6769 122.241 24.0838H124.241ZM125.187 21.9872L126.551 23.45C126.804 23.214 127.068 23.1051 127.45 23.1051V21.1051V19.1051C126.076 19.1051 124.831 19.5843 123.823 20.5244L125.187 21.9872ZM127.45 21.1051V23.1051C127.845 23.1051 128.102 23.2171 128.339 23.4407L129.713 21.9872L131.086 20.5337C130.079 19.5812 128.827 19.1051 127.45 19.1051V21.1051ZM129.713 21.9872L128.359 23.4599C128.6 23.6807 128.659 23.8543 128.659 24.0838H130.659H132.659C132.659 22.6769 132.087 21.4528 131.066 20.5146L129.713 21.9872ZM130.659 24.0838H128.659C128.659 24.3294 128.593 24.515 128.349 24.7432L129.713 26.206L131.076 27.6687C132.093 26.7207 132.659 25.4916 132.659 24.0838H130.659ZM129.713 26.206L128.349 24.7425C128.114 24.9614 127.854 25.0753 127.45 25.0753V27.0753V29.0753C128.818 29.0753 130.066 28.6096 131.076 27.6694L129.713 26.206ZM138.64 37.8011L136.64 37.7784L136.64 37.7898V37.8011H138.64ZM138.64 49V51H140.64V49H138.64ZM132.388 49H130.388V51H132.388V49ZM132.388 29.3636V27.3636H130.388V29.3636H132.388ZM138.333 29.3636H140.333V27.3636H138.333V29.3636ZM138.333 32.9688H136.333V34.9688H138.333V32.9688ZM138.55 32.9688V34.9688H139.953L140.431 33.649L138.55 32.9688ZM140.774 30.1435L141.865 31.8201L141.874 31.8138L140.774 30.1435ZM148.113 30.0412L147.067 31.746L147.075 31.7511L147.084 31.7562L148.113 30.0412ZM150.49 32.6236L148.707 33.529L148.711 33.5372L148.715 33.5454L150.49 32.6236ZM151.334 36.4844L149.334 36.4728V36.4844H151.334ZM151.334 49V51H153.334V49H151.334ZM145.083 49H143.083V51H145.083V49ZM145.083 37.7116L143.083 37.696L143.083 37.7038V37.7116H145.083ZM144.252 35.1548L142.767 36.495L142.772 36.5007L142.777 36.5063L144.252 35.1548ZM140.199 34.669L141.188 36.4074L141.198 36.4019L140.199 34.669ZM139.049 35.8835L137.271 34.9662L137.265 34.9776L137.26 34.9891L139.049 35.8835ZM138.64 37.8011H136.64V49H138.64H140.64V37.8011H138.64ZM138.64 49V47H132.388V49V51H138.64V49ZM132.388 49H134.388V29.3636H132.388H130.388V49H132.388ZM132.388 29.3636V31.3636H138.333V29.3636V27.3636H132.388V29.3636ZM138.333 29.3636H136.333V32.9688H138.333H140.333V29.3636H138.333ZM138.333 32.9688V34.9688H138.55V32.9688V30.9688H138.333V32.9688ZM138.55 32.9688L140.431 33.649C140.721 32.8469 141.19 32.259 141.865 31.82L140.774 30.1435L139.684 28.4669C138.262 29.3915 137.248 30.6872 136.669 32.2885L138.55 32.9688ZM140.774 30.1435L141.874 31.8138C142.548 31.3702 143.4 31.108 144.52 31.108V29.108V27.108C142.742 27.108 141.097 27.5361 139.674 28.4731L140.774 30.1435ZM144.52 29.108V31.108C145.592 31.108 146.415 31.3461 147.067 31.746L148.113 30.0412L149.158 28.3364C147.782 27.492 146.21 27.108 144.52 27.108V29.108ZM148.113 30.0412L147.084 31.7562C147.77 32.1679 148.307 32.7417 148.707 33.529L150.49 32.6236L152.274 31.7182C151.548 30.2895 150.501 29.1417 149.142 28.3262L148.113 30.0412ZM150.49 32.6236L148.715 33.5454C149.111 34.3066 149.341 35.2617 149.334 36.4728L151.334 36.4844L153.334 36.4959C153.344 34.7582 153.012 33.1395 152.265 31.7017L150.49 32.6236ZM151.334 36.4844H149.334V49H151.334H153.334V36.4844H151.334ZM151.334 49V47H145.083V49V51H151.334V49ZM145.083 49H147.083V37.7116H145.083H143.083V49H145.083ZM145.083 37.7116L147.083 37.7273C147.094 36.2921 146.726 34.8939 145.726 33.8034L144.252 35.1548L142.777 36.5063C142.903 36.643 143.089 36.9494 143.083 37.696L145.083 37.7116ZM144.252 35.1548L145.736 33.8146C144.729 32.699 143.372 32.2344 141.938 32.2344V34.2344V36.2344C142.481 36.2344 142.666 36.3834 142.767 36.495L144.252 35.1548ZM141.938 34.2344V32.2344C140.978 32.2344 140.045 32.4495 139.201 32.9362L140.199 34.669L141.198 36.4019C141.359 36.3091 141.585 36.2344 141.938 36.2344V34.2344ZM140.199 34.669L139.21 32.9307C138.363 33.4125 137.713 34.1101 137.271 34.9662L139.049 35.8835L140.826 36.8008C140.929 36.6001 141.046 36.488 141.188 36.4074L140.199 34.669ZM139.049 35.8835L137.26 34.9891C136.829 35.8512 136.651 36.8048 136.64 37.7784L138.64 37.8011L140.639 37.8239C140.645 37.2975 140.74 36.9726 140.837 36.778L139.049 35.8835ZM158.682 43.848L156.682 43.8412L156.663 49.4326L160.224 45.1218L158.682 43.848ZM158.708 36.3949V34.3949H156.715L156.708 36.388L158.708 36.3949ZM159.577 36.3949V38.3949H160.549L161.15 37.6303L159.577 36.3949ZM165.1 29.3636V27.3636H164.128L163.527 28.1282L165.1 29.3636ZM172.182 29.3636L173.733 30.6269L176.391 27.3636H172.182V29.3636ZM163.975 39.4375V41.4375H164.925L165.525 40.7008L163.975 39.4375ZM162.326 39.4375V37.4375H161.384L160.784 38.1637L162.326 39.4375ZM153.045 49H151.045V51H153.045V49ZM153.045 22.8182V20.8182H151.045V22.8182H153.045ZM159.296 22.8182H161.296V20.8182H159.296V22.8182ZM159.296 49V51H161.296V49H159.296ZM165.241 49L163.548 50.0662L164.137 51H165.241V49ZM160.101 40.8438L158.635 39.4833L157.59 40.6098L158.409 41.9099L160.101 40.8438ZM164.218 36.4077L165.891 35.312L164.491 33.1734L162.752 35.0473L164.218 36.4077ZM172.464 49V51H176.164L174.137 47.9044L172.464 49ZM158.682 43.848L160.682 43.8549L160.708 36.4017L158.708 36.3949L156.708 36.388L156.682 43.8412L158.682 43.848ZM158.708 36.3949V38.3949H159.577V36.3949V34.3949H158.708V36.3949ZM159.577 36.3949L161.15 37.6303L166.673 30.599L165.1 29.3636L163.527 28.1282L158.004 35.1595L159.577 36.3949ZM165.1 29.3636V31.3636H172.182V29.3636V27.3636H165.1V29.3636ZM172.182 29.3636L170.632 28.1004L162.424 38.1742L163.975 39.4375L165.525 40.7008L173.733 30.6269L172.182 29.3636ZM163.975 39.4375V37.4375H162.326V39.4375V41.4375H163.975V39.4375ZM162.326 39.4375L160.784 38.1637L157.14 42.5742L158.682 43.848L160.224 45.1218L163.868 40.7113L162.326 39.4375ZM153.045 49H155.045V22.8182H153.045H151.045V49H153.045ZM153.045 22.8182V24.8182H159.296V22.8182V20.8182H153.045V22.8182ZM159.296 22.8182H157.296V49H159.296H161.296V22.8182H159.296ZM159.296 49V47H153.045V49V51H159.296V49ZM165.241 49L166.933 47.9338L161.793 39.7776L160.101 40.8438L158.409 41.9099L163.548 50.0662L165.241 49ZM160.101 40.8438L161.567 42.2042L165.684 37.7681L164.218 36.4077L162.752 35.0473L158.635 39.4833L160.101 40.8438ZM164.218 36.4077L162.545 37.5033L170.79 50.0956L172.464 49L174.137 47.9044L165.891 35.312L164.218 36.4077ZM172.464 49V47H165.241V49V51H172.464V49Z" fill="black" mask="url(#path-5-outside-1_7_25)"/>
</svg>
